<svg data-v-1e0b7556="" version="1.1" viewBox="0 0 1321 209" class="svg-icon svg-fill" style="width: 180px;"><g clip-path="url(#clip0_679_2)"><path pid="0" d="M118.956 47.633h-14.369l-7.425 11.722C86.897 49.92 73.76 43.27 59.44 43.27 26.613 43.269 0 69.333 0 101.48s26.628 58.212 59.439 58.212c13.575 0 26.106-5.404 36.12-13.628V157.3c-3.456 16.432-18.274 28.796-36.09 28.796a37.106 37.106 0 01-28.893-13.67H4.584c8.97 21.005 30.163 35.771 54.886 35.771 32.372 0 58.723-22.138 59.433-56.77h.053V47.633zm-59.523 89.952c-20.362 0-36.867-16.186-36.867-36.105 0-19.919 16.505-36.105 36.867-36.105 17.82 0 32.685 12.38 36.12 28.842v14.531c-3.43 16.457-18.294 28.863-36.114 28.863l-.006-.026zM508.089 0l.058 58.144c-10.14-9.07-23.161-14.688-37.363-14.688-32.372 0-58.609 25.637-58.609 57.82 0 32.184 26.242 58.264 58.609 58.264 14.421 0 27.62-6.954 37.833-16.708l8.646 13.576h14.62V.11L508.089 0zm-36.825 137.564c-20.076 0-35.353-16.186-35.353-36.131s14.515-34.622 34.591-34.622c16.478 0 32.471 9.304 37.676 24.195v20.708c-5.049 14.932-20.488 25.85-36.914 25.85zM751.049 47.633h-26.962l-10.996 17.204V47.633h-23.595v108.764l23.595.11V66.821l37.958-.005V47.633zM1105.3 66.811V47.764h-26.97l-10.57 16.541V.162h-14.61l-9.04 14.202-.14 109.442v4.026h.05a31.184 31.184 0 009.88 20.55 31.174 31.174 0 0021.21 8.344h30.01v-18.984h-27.54a9.858 9.858 0 01-6.96-2.88 9.97 9.97 0 01-2.13-3.192 9.925 9.925 0 01-.75-3.765V66.816l37.56-.005zM643.513 117.739a36.664 36.664 0 01-32.617 19.726c-20.243 0-36.654-16.186-36.654-36.188 0-20.003 16.411-36.189 36.654-36.189a36.662 36.662 0 0132.763 20.018h24.018C660.57 60.75 637.842 42.93 610.89 42.93c-32.638 0-59.094 26.106-59.094 58.348 0 32.241 26.456 58.342 59.094 58.342 26.848 0 49.503-17.674 56.703-41.88h-24.08zM857.208 47.852l-32.837 89.592-30.643-89.591h-23.955l38.23 111.771h8.234l-17.805 48.573h23.955l58.776-160.345h-23.955zM964.337 43.394c-14.619 0-28.247 6.892-38.512 16.875l-7.993-12.416h-14.803v160.245l23.767.115-.255-63.887c10.165 9.163 23.25 15.308 37.535 15.308 32.372 0 58.574-26.074 58.574-58.242 0-32.169-25.962-57.998-58.313-57.998zm-.261 94.17c-16.77 0-32.842-11.34-37.671-26.712l-.073-18.739c4.699-15.428 20.749-25.302 37.593-25.302 20.065 0 35.039 14.667 35.039 34.622 0 19.956-14.823 36.131-34.888 36.131zM197.734 43.138c-32.57 0-59 26.07-59 58.227 0 32.158 26.404 58.228 59 58.228 32.596 0 58.974-26.07 58.974-58.228 0-32.157-26.404-58.227-58.974-58.227zm0 94.343c-20.201 0-36.575-16.186-36.575-36.116 0-19.929 16.374-36.115 36.575-36.115 20.201 0 36.58 16.186 36.58 36.115 0 19.93-16.395 36.116-36.58 36.116zM333.752 43.138c-32.57 0-58.974 26.07-58.974 58.227 0 32.158 26.404 58.228 58.974 58.228 32.57 0 59-26.07 59-58.228 0-32.157-26.43-58.227-59-58.227zm0 94.343c-20.201 0-36.548-16.186-36.548-36.116 0-19.929 16.373-36.115 36.548-36.115s36.58 16.186 36.58 36.115c0 19.93-16.379 36.116-36.58 36.116z" fill="#fff"></path><path pid="1" d="M1246.59 117.123l15.61-15.612 58.05-58.065-31.16-.094-42.52 42.527-.09-.089-15.62 15.622.08.084-24.07 24.07-2.67 2.673a36.77 36.77 0 01-24.59 9.367c-20.18 0-36.55-16.144-36.55-36.095 0-19.95 16.37-36.089 36.55-36.089A36.632 36.632 0 011205.46 76l11.73 11.722 15.62-15.622-8.48-8.48a56.508 56.508 0 00-5.8-5.8l-.31-.308a59.233 59.233 0 00-38.6-14.202c-32.54 0-58.94 26.065-58.94 58.191 0 32.126 26.4 58.191 58.94 58.191a59.18 59.18 0 0038.35-13.993l.21-.209a57.017 57.017 0 006.4-6.406l22-21.998.01.037z" fill="url(#paint0_linear_679_2)"></path><path pid="2" d="M1275.91 115.196l-15.61 15.612 29.09 29.035h31.25l-44.73-44.647z" fill="url(#paint1_linear_679_2)"></path><path pid="3" d="M1320.26 43.456l-31.17-.088-62.91 62.9 15.42 15.846 78.66-78.658z" fill="url(#paint2_linear_679_2)"></path></g><defs><linearGradient id="paint0_linear_679_2" x1="1120.67" y1="101.532" x2="1320.26" y2="101.532" gradientUnits="userSpaceOnUse"><stop offset=".151" stop-color="#fff"></stop><stop offset=".48" stop-color="#01EF67"></stop></linearGradient><linearGradient id="paint1_linear_679_2" x1="1270.52" y1="259.386" x2="1307.89" y2="45.743" gradientUnits="userSpaceOnUse"><stop offset=".54" stop-color="#01EF67"></stop><stop offset=".66" stop-color="#01EF67"></stop><stop offset=".67" stop-color="#092CFB"></stop></linearGradient><linearGradient id="paint2_linear_679_2" x1="1280.55" y1="118.601" x2="1268.27" y2="45.294" gradientUnits="userSpaceOnUse"><stop offset=".23" stop-color="#01EF67" stop-opacity="0"></stop><stop offset="1" stop-color="#092CFB"></stop></linearGradient><clipPath id="clip0_679_2"><path pid="4" fill="#fff" d="M0 0h1320.64v208.197H0z"></path></clipPath></defs></svg>